<svg width="822" height="420" viewBox="0 0 822 420" fill="none" xmlns="http://www.w3.org/2000/svg">
  <defs>
  <!-- Animation -->
    <style type="text/css"><![CDATA[
#Vector{
	animation-name: spin;
  animation-delay: 500ms;
  animation-duration: 3000ms;
  animation-iteration-count: 1;
  animation-timing-function: ease-out; 
  transform-origin: 50% 50%;
  animation-fill-mode: forwards;
}

@keyframes spin {
	from {
			transform:rotate(0deg);
	}
	to {
			transform:rotate(135deg);
	}
}

#Ellipse_1{
  	animation-name: fade-in;
    animation-delay: 500ms;
    animation-duration: 2000ms;
    animation-iteration-count: 1;
    animation-timing-function: ease-out; 
    animation-fill-mode: backwards;
}

@keyframes fade-in {
	from {
			stroke:hsla(0, 0%, 100%, 0);
      stroke-width:18;
	}
	to {
			stroke:hsla(0, 0%, 100%, 1);
      stroke-width:18;
	}
}

#ROBERT-MCABEE{
  	animation-name: fill-fade-in;
    animation-delay: 500ms;
    animation-duration: 1500ms;
    animation-iteration-count: 1;
    animation-timing-function: ease-out; 
    animation-fill-mode: backwards;
}

@keyframes fill-fade-in {
	from {
			fill:hsla(0, 0%, 100%, 0);
	}
	to {
			fill:hsla(0, 0%, 100%, 1);
	}
}

    ]]></style>
    
  </defs>
<g id="Group1">
<path id="ROBERT-MCABEE" d="M47.664 260C46.704 260 46.08 259.52 45.792 258.56L33.552 217.232C33.36 216.848 33.12 216.656 32.832 216.656H25.2C24.72 216.656 24.48 216.896 24.48 217.376V258.272C24.48 258.752 24.288 259.184 23.904 259.568C23.616 259.856 23.232 260 22.752 260H9.504C9.024 260 8.592 259.856 8.208 259.568C7.92 259.184 7.776 258.752 7.776 258.272V160.928C7.776 160.448 7.92 160.064 8.208 159.776C8.592 159.392 9.024 159.2 9.504 159.2H36.576C41.664 159.2 46.128 160.448 49.968 162.944C53.904 165.344 56.928 168.8 59.04 173.312C61.248 177.728 62.352 182.816 62.352 188.576C62.352 194.528 61.2 199.664 58.896 203.984C56.592 208.304 53.376 211.568 49.248 213.776C48.864 213.872 48.72 214.16 48.816 214.64L62.928 257.984C63.024 258.176 63.072 258.416 63.072 258.704C63.072 259.568 62.544 260 61.488 260H47.664ZM25.2 173.6C24.72 173.6 24.48 173.84 24.48 174.32V202.976C24.48 203.456 24.72 203.696 25.2 203.696H33.984C37.44 203.696 40.224 202.352 42.336 199.664C44.544 196.976 45.648 193.328 45.648 188.72C45.648 184.112 44.544 180.464 42.336 177.776C40.224 174.992 37.44 173.6 33.984 173.6H25.2ZM99.927 261.152C91.671 261.152 84.999 258.656 79.911 253.664C74.919 248.672 72.423 242.048 72.423 233.792V185.408C72.423 177.152 74.919 170.528 79.911 165.536C84.999 160.544 91.671 158.048 99.927 158.048C108.183 158.048 114.855 160.544 119.943 165.536C125.031 170.528 127.575 177.152 127.575 185.408V233.792C127.575 242.048 125.031 248.672 119.943 253.664C114.855 258.656 108.183 261.152 99.927 261.152ZM99.927 246.752C103.191 246.752 105.831 245.648 107.847 243.44C109.863 241.136 110.871 238.16 110.871 234.512V184.688C110.871 181.04 109.863 178.112 107.847 175.904C105.831 173.6 103.191 172.448 99.927 172.448C96.663 172.448 94.023 173.6 92.007 175.904C90.087 178.112 89.127 181.04 89.127 184.688V234.512C89.127 238.16 90.087 241.136 92.007 243.44C94.023 245.648 96.663 246.752 99.927 246.752ZM196.234 232.352C196.234 241.184 193.642 248 188.458 252.8C183.37 257.6 176.698 260 168.442 260H143.098C142.618 260 142.186 259.856 141.802 259.568C141.514 259.184 141.37 258.752 141.37 258.272V160.928C141.37 160.448 141.514 160.064 141.802 159.776C142.186 159.392 142.618 159.2 143.098 159.2H165.85C174.97 159.2 182.122 161.504 187.306 166.112C192.49 170.72 195.082 177.44 195.082 186.272C195.082 196.16 191.578 203.216 184.57 207.44C184.09 207.728 183.994 208.016 184.282 208.304C188.026 210.704 190.954 213.92 193.066 217.952C195.178 221.984 196.234 226.784 196.234 232.352ZM158.794 173.6C158.314 173.6 158.074 173.84 158.074 174.32V201.104C158.074 201.584 158.314 201.824 158.794 201.824H166.138C170.074 201.824 173.146 200.624 175.354 198.224C177.562 195.824 178.666 192.416 178.666 188C178.666 183.392 177.562 179.84 175.354 177.344C173.146 174.848 170.074 173.6 166.138 173.6H158.794ZM167.146 245.456C170.986 245.456 174.01 244.112 176.218 241.424C178.426 238.736 179.53 234.944 179.53 230.048C179.53 225.056 178.426 221.168 176.218 218.384C174.01 215.504 170.986 214.064 167.146 214.064H158.794C158.314 214.064 158.074 214.304 158.074 214.784V244.736C158.074 245.216 158.314 245.456 158.794 245.456H167.146ZM257.579 171.872C257.579 172.352 257.387 172.784 257.003 173.168C256.715 173.456 256.331 173.6 255.851 173.6H224.747C224.267 173.6 224.027 173.84 224.027 174.32V201.536C224.027 202.016 224.267 202.256 224.747 202.256H243.179C243.659 202.256 244.043 202.448 244.331 202.832C244.715 203.12 244.907 203.504 244.907 203.984V215.072C244.907 215.552 244.715 215.984 244.331 216.368C244.043 216.656 243.659 216.8 243.179 216.8H224.747C224.267 216.8 224.027 217.04 224.027 217.52V244.88C224.027 245.36 224.267 245.6 224.747 245.6H255.851C256.331 245.6 256.715 245.792 257.003 246.176C257.387 246.464 257.579 246.848 257.579 247.328V258.272C257.579 258.752 257.387 259.184 257.003 259.568C256.715 259.856 256.331 260 255.851 260H209.051C208.571 260 208.139 259.856 207.755 259.568C207.467 259.184 207.323 258.752 207.323 258.272V160.928C207.323 160.448 207.467 160.064 207.755 159.776C208.139 159.392 208.571 159.2 209.051 159.2H255.851C256.331 159.2 256.715 159.392 257.003 159.776C257.387 160.064 257.579 160.448 257.579 160.928V171.872ZM309.789 260C308.829 260 308.205 259.52 307.917 258.56L295.677 217.232C295.485 216.848 295.245 216.656 294.957 216.656H287.325C286.845 216.656 286.605 216.896 286.605 217.376V258.272C286.605 258.752 286.413 259.184 286.029 259.568C285.741 259.856 285.357 260 284.877 260H271.629C271.149 260 270.717 259.856 270.333 259.568C270.045 259.184 269.901 258.752 269.901 258.272V160.928C269.901 160.448 270.045 160.064 270.333 159.776C270.717 159.392 271.149 159.2 271.629 159.2H298.701C303.789 159.2 308.253 160.448 312.093 162.944C316.029 165.344 319.053 168.8 321.165 173.312C323.373 177.728 324.477 182.816 324.477 188.576C324.477 194.528 323.325 199.664 321.021 203.984C318.717 208.304 315.501 211.568 311.373 213.776C310.989 213.872 310.845 214.16 310.941 214.64L325.053 257.984C325.149 258.176 325.197 258.416 325.197 258.704C325.197 259.568 324.669 260 323.613 260H309.789ZM287.325 173.6C286.845 173.6 286.605 173.84 286.605 174.32V202.976C286.605 203.456 286.845 203.696 287.325 203.696H296.109C299.565 203.696 302.349 202.352 304.461 199.664C306.669 196.976 307.773 193.328 307.773 188.72C307.773 184.112 306.669 180.464 304.461 177.776C302.349 174.992 299.565 173.6 296.109 173.6H287.325ZM387.972 159.2C388.452 159.2 388.836 159.392 389.124 159.776C389.508 160.064 389.7 160.448 389.7 160.928V171.872C389.7 172.352 389.508 172.784 389.124 173.168C388.836 173.456 388.452 173.6 387.972 173.6H369.684C369.204 173.6 368.964 173.84 368.964 174.32V258.272C368.964 258.752 368.772 259.184 368.388 259.568C368.1 259.856 367.716 260 367.236 260H353.988C353.508 260 353.076 259.856 352.692 259.568C352.404 259.184 352.26 258.752 352.26 258.272V174.32C352.26 173.84 352.02 173.6 351.54 173.6H334.26C333.78 173.6 333.348 173.456 332.964 173.168C332.676 172.784 332.532 172.352 332.532 171.872V160.928C332.532 160.448 332.676 160.064 332.964 159.776C333.348 159.392 333.78 159.2 334.26 159.2H387.972ZM475.43 160.352C475.91 159.584 476.63 159.2 477.59 159.2H490.838C491.318 159.2 491.702 159.392 491.99 159.776C492.374 160.064 492.566 160.448 492.566 160.928V258.272C492.566 258.752 492.374 259.184 491.99 259.568C491.702 259.856 491.318 260 490.838 260H477.59C477.11 260 476.678 259.856 476.294 259.568C476.006 259.184 475.862 258.752 475.862 258.272V190.304C475.862 189.92 475.766 189.728 475.574 189.728C475.382 189.728 475.19 189.872 474.998 190.16L462.47 212.912C461.99 213.68 461.558 214.064 461.174 214.064C460.79 214.064 460.358 213.68 459.878 212.912L447.35 190.16C447.158 189.872 446.966 189.728 446.774 189.728C446.582 189.728 446.486 189.92 446.486 190.304V258.272C446.486 258.752 446.294 259.184 445.91 259.568C445.622 259.856 445.238 260 444.758 260H431.51C431.03 260 430.598 259.856 430.214 259.568C429.926 259.184 429.782 258.752 429.782 258.272V160.928C429.782 160.448 429.926 160.064 430.214 159.776C430.598 159.392 431.03 159.2 431.51 159.2H444.758C445.718 159.2 446.438 159.584 446.918 160.352L460.886 184.976C461.174 185.36 461.462 185.36 461.75 184.976L475.43 160.352ZM533.042 261.152C524.882 261.152 518.306 258.704 513.314 253.808C508.418 248.816 505.97 242.24 505.97 234.08V184.976C505.97 176.72 508.418 170.192 513.314 165.392C518.306 160.496 524.882 158.048 533.042 158.048C541.298 158.048 547.922 160.496 552.914 165.392C557.906 170.192 560.402 176.72 560.402 184.976V186.704C560.402 187.184 560.21 187.616 559.826 188C559.538 188.384 559.154 188.576 558.674 188.576L545.282 189.152C544.13 189.152 543.554 188.576 543.554 187.424V183.824C543.554 180.464 542.594 177.728 540.674 175.616C538.754 173.504 536.21 172.448 533.042 172.448C529.97 172.448 527.474 173.504 525.554 175.616C523.634 177.728 522.674 180.464 522.674 183.824V235.376C522.674 238.736 523.634 241.472 525.554 243.584C527.474 245.696 529.97 246.752 533.042 246.752C536.21 246.752 538.754 245.696 540.674 243.584C542.594 241.472 543.554 238.736 543.554 235.376V231.776C543.554 231.296 543.698 230.912 543.986 230.624C544.37 230.24 544.802 230.048 545.282 230.048L558.674 230.624C559.154 230.624 559.538 230.816 559.826 231.2C560.21 231.488 560.402 231.872 560.402 232.352V234.08C560.402 242.24 557.906 248.816 552.914 253.808C547.922 258.704 541.298 261.152 533.042 261.152ZM613.281 260C612.129 260 611.505 259.472 611.409 258.416L608.673 243.296C608.673 242.816 608.385 242.576 607.809 242.576H586.785C586.209 242.576 585.921 242.816 585.921 243.296L583.185 258.416C583.089 259.472 582.465 260 581.313 260H568.209C566.865 260 566.337 259.376 566.625 258.128L587.937 160.784C588.129 159.728 588.753 159.2 589.809 159.2H605.073C606.129 159.2 606.753 159.728 606.945 160.784L628.257 258.128V258.704C628.257 259.568 627.729 260 626.673 260H613.281ZM588.513 228.752C588.417 229.232 588.657 229.472 589.233 229.472H605.217C605.793 229.472 606.033 229.232 605.937 228.752L597.585 183.248C597.489 182.96 597.345 182.816 597.153 182.816C596.961 182.816 596.817 182.96 596.721 183.248L588.513 228.752ZM692.921 232.352C692.921 241.184 690.329 248 685.145 252.8C680.057 257.6 673.385 260 665.129 260H639.785C639.305 260 638.873 259.856 638.489 259.568C638.201 259.184 638.057 258.752 638.057 258.272V160.928C638.057 160.448 638.201 160.064 638.489 159.776C638.873 159.392 639.305 159.2 639.785 159.2H662.537C671.657 159.2 678.809 161.504 683.993 166.112C689.177 170.72 691.769 177.44 691.769 186.272C691.769 196.16 688.265 203.216 681.257 207.44C680.777 207.728 680.681 208.016 680.969 208.304C684.713 210.704 687.641 213.92 689.753 217.952C691.865 221.984 692.921 226.784 692.921 232.352ZM655.481 173.6C655.001 173.6 654.761 173.84 654.761 174.32V201.104C654.761 201.584 655.001 201.824 655.481 201.824H662.825C666.761 201.824 669.833 200.624 672.041 198.224C674.249 195.824 675.353 192.416 675.353 188C675.353 183.392 674.249 179.84 672.041 177.344C669.833 174.848 666.761 173.6 662.825 173.6H655.481ZM663.833 245.456C667.673 245.456 670.697 244.112 672.905 241.424C675.113 238.736 676.217 234.944 676.217 230.048C676.217 225.056 675.113 221.168 672.905 218.384C670.697 215.504 667.673 214.064 663.833 214.064H655.481C655.001 214.064 654.761 214.304 654.761 214.784V244.736C654.761 245.216 655.001 245.456 655.481 245.456H663.833ZM754.266 171.872C754.266 172.352 754.074 172.784 753.69 173.168C753.402 173.456 753.018 173.6 752.538 173.6H721.434C720.954 173.6 720.714 173.84 720.714 174.32V201.536C720.714 202.016 720.954 202.256 721.434 202.256H739.866C740.346 202.256 740.73 202.448 741.018 202.832C741.402 203.12 741.594 203.504 741.594 203.984V215.072C741.594 215.552 741.402 215.984 741.018 216.368C740.73 216.656 740.346 216.8 739.866 216.8H721.434C720.954 216.8 720.714 217.04 720.714 217.52V244.88C720.714 245.36 720.954 245.6 721.434 245.6H752.538C753.018 245.6 753.402 245.792 753.69 246.176C754.074 246.464 754.266 246.848 754.266 247.328V258.272C754.266 258.752 754.074 259.184 753.69 259.568C753.402 259.856 753.018 260 752.538 260H705.738C705.258 260 704.826 259.856 704.442 259.568C704.154 259.184 704.01 258.752 704.01 258.272V160.928C704.01 160.448 704.154 160.064 704.442 159.776C704.826 159.392 705.258 159.2 705.738 159.2H752.538C753.018 159.2 753.402 159.392 753.69 159.776C754.074 160.064 754.266 160.448 754.266 160.928V171.872ZM816.845 171.872C816.845 172.352 816.653 172.784 816.269 173.168C815.981 173.456 815.597 173.6 815.117 173.6H784.013C783.533 173.6 783.293 173.84 783.293 174.32V201.536C783.293 202.016 783.533 202.256 784.013 202.256H802.445C802.925 202.256 803.309 202.448 803.597 202.832C803.981 203.12 804.173 203.504 804.173 203.984V215.072C804.173 215.552 803.981 215.984 803.597 216.368C803.309 216.656 802.925 216.8 802.445 216.8H784.013C783.533 216.8 783.293 217.04 783.293 217.52V244.88C783.293 245.36 783.533 245.6 784.013 245.6H815.117C815.597 245.6 815.981 245.792 816.269 246.176C816.653 246.464 816.845 246.848 816.845 247.328V258.272C816.845 258.752 816.653 259.184 816.269 259.568C815.981 259.856 815.597 260 815.117 260H768.316C767.837 260 767.405 259.856 767.021 259.568C766.733 259.184 766.589 258.752 766.589 258.272V160.928C766.589 160.448 766.733 160.064 767.021 159.776C767.405 159.392 767.837 159.2 768.316 159.2H815.117C815.597 159.2 815.981 159.392 816.269 159.776C816.653 160.064 816.845 160.448 816.845 160.928V171.872Z" fill="white"/>
<mask id="mask0_20_41" style="mask-type:alpha" maskUnits="userSpaceOnUse" x="201" y="0" width="420" height="420">

<g id="Vector">
<path d="M201 -1.52588e-05L621 -1.52588e-05V195L201 195V-1.52588e-05Z" fill="white"/>
<path d="M201 225L621 225V420H201L201 225Z" fill="white"/>
</g>
</mask>
<g mask="url(#mask0_20_41)">
<g id="Group 2">
<mask id="mask1_20_41" style="mask-type:alpha" maskUnits="userSpaceOnUse" x="201" y="0" width="420" height="420">

<g id="Vector_2">
<path d="M201 3.05176e-05H621V140H201V3.05176e-05Z" fill="white"/>
<path d="M201 280H621V420H201V280Z" fill="white"/>
</g>
</mask>
<g mask="url(#mask1_20_41)">
<circle id="Ellipse_1" cx="411" cy="210" r="201" stroke="white" stroke-width="18"/>
</g>

</g>
</g>
</g>
</svg>
