<svg 
  width="354"
  height="354"
  viewBox="0 0 354 354"
  fill="none" 
  xmlns="http://www.w3.org/2000/svg">
<path d="M155.441 223.171C154.481 223.171 153.857 222.691 153.569 221.731L141.329 180.403C141.137 180.019 140.897 179.827 140.609 179.827H132.977C132.497 179.827 132.257 180.067 132.257 180.547V221.443C132.257 221.923 132.065 222.355 131.681 222.739C131.393 223.027 131.009 223.171 130.529 223.171H117.281C116.801 223.171 116.369 223.027 115.985 222.739C115.697 222.355 115.553 221.923 115.553 221.443V124.099C115.553 123.619 115.697 123.235 115.985 122.947C116.369 122.563 116.801 122.371 117.281 122.371H144.353C149.441 122.371 153.905 123.619 157.745 126.115C161.681 128.515 164.705 131.971 166.817 136.483C169.025 140.899 170.129 145.987 170.129 151.747C170.129 157.699 168.977 162.835 166.673 167.155C164.369 171.475 161.153 174.739 157.025 176.947C156.641 177.043 156.497 177.331 156.593 177.811L170.705 221.155C170.801 221.347 170.849 221.587 170.849 221.875C170.849 222.739 170.321 223.171 169.265 223.171H155.441ZM132.977 136.771C132.497 136.771 132.257 137.011 132.257 137.491V166.147C132.257 166.627 132.497 166.867 132.977 166.867H141.761C145.217 166.867 148.001 165.523 150.113 162.835C152.321 160.147 153.425 156.499 153.425 151.891C153.425 147.283 152.321 143.635 150.113 140.947C148.001 138.163 145.217 136.771 141.761 136.771H132.977ZM227.144 123.523C227.624 122.755 228.344 122.371 229.304 122.371H242.552C243.032 122.371 243.416 122.563 243.704 122.947C244.088 123.235 244.28 123.619 244.28 124.099V221.443C244.28 221.923 244.088 222.355 243.704 222.739C243.416 223.027 243.032 223.171 242.552 223.171H229.304C228.824 223.171 228.392 223.027 228.008 222.739C227.72 222.355 227.576 221.923 227.576 221.443V153.475C227.576 153.091 227.48 152.899 227.288 152.899C227.096 152.899 226.904 153.043 226.712 153.331L214.184 176.083C213.704 176.851 213.272 177.235 212.888 177.235C212.504 177.235 212.072 176.851 211.592 176.083L199.064 153.331C198.872 153.043 198.68 152.899 198.488 152.899C198.296 152.899 198.2 153.091 198.2 153.475V221.443C198.2 221.923 198.008 222.355 197.624 222.739C197.336 223.027 196.952 223.171 196.472 223.171H183.224C182.744 223.171 182.312 223.027 181.928 222.739C181.64 222.355 181.496 221.923 181.496 221.443V124.099C181.496 123.619 181.64 123.235 181.928 122.947C182.312 122.563 182.744 122.371 183.224 122.371H196.472C197.432 122.371 198.152 122.755 198.632 123.523L212.6 148.147C212.888 148.531 213.176 148.531 213.464 148.147L227.144 123.523Z" fill="white"/>
<mask id="mask0_20_46" style="mask-type:alpha" maskUnits="userSpaceOnUse" x="0" y="0" width="354" height="354">
<path d="M0 176.777L70.7107 106.066L247.487 282.843L176.777 353.553L0 176.777Z" fill="#C4C4C4"/>
<path d="M106.066 70.7107L176.777 -7.26716e-06L353.553 176.777L282.843 247.487L106.066 70.7107Z" fill="#C4C4C4"/>
</mask>
<g mask="url(#mask0_20_46)">
<circle cx="176.777" cy="176.818" r="116" stroke="white" stroke-width="18"/>
</g>
</svg>
